<svg width="136" height="63" viewBox="0 0 721 358" fill="none" xmlns="http://www.w3.org/2000/svg">
<path fill-rule="evenodd" clip-rule="evenodd" d="M347.976 217.037H347.959C346.356 217.037 344.941 217.566 343.61 218.64C342.621 219.424 341.939 220.482 341.394 221.658H341.462C342.008 220.482 342.69 219.424 343.662 218.64C344.992 217.566 346.407 217.054 347.976 217.037Z" fill="#BD0000"/>
<path fill-rule="evenodd" clip-rule="evenodd" d="M81.465 11.5926L22.1552 270.36C22.1723 270.36 22.1744 270.36 22.2085 270.36H296.589H439.295C422.294 268.876 408.872 262.908 400.874 252.029C399.391 250.017 398.165 247.849 397.091 245.581C396.409 243.91 395.767 242.224 395.119 240.519C393.414 235.096 392.734 229.079 393.041 222.667C393.894 204.796 402.279 183.539 416.807 161.279C432.24 137.623 454.606 112.828 482.299 89.8197C488.506 84.6665 494.924 79.5777 501.642 74.6325C509.947 68.5227 518.315 62.8959 526.688 57.6336C557.535 38.2128 588.306 24.6235 615.572 17.7208C589.517 26.2213 560.244 40.6521 531.324 60.298C530.284 61.0006 529.256 61.7202 528.233 62.4295C512.187 73.5476 497.65 85.3554 484.963 97.28C444.14 135.665 422.563 175.439 432.368 198.741C433.067 200.344 433.9 201.874 434.872 203.323C445.41 218.824 471.528 221.503 504.626 213.182C506.877 212.619 509.128 211.982 511.447 211.317C522.02 208.264 533.244 204.142 544.806 199.06C547.585 197.833 550.395 196.571 553.225 195.224C553.515 195.087 553.788 194.951 554.078 194.797C590.569 176.666 618.614 155.803 624.685 143.268C626.015 140.541 626.334 138.216 625.431 136.394C621.099 127.612 590.791 133.545 554.078 149.449C551.128 150.728 548.144 152.044 545.125 153.446C547.581 151.166 550.137 148.877 552.746 146.625C556.906 143.04 561.214 139.535 565.801 136.074C572.98 130.638 580.238 125.723 587.383 121.366C620.839 96.1256 637.753 72.249 634.223 63.3887C633.558 61.7193 632.143 60.5708 629.96 59.8717C622.986 57.6532 610.256 60.301 594.79 66.6393C582.035 71.8709 567.385 79.6301 552.532 89.2868L550.507 90.619L550.134 90.8321L542.994 95.5748L547.097 88.0611C553.185 76.9175 563.101 65.2905 575.446 54.4896C584.501 46.5927 594.845 39.152 605.98 32.6414C610.192 30.1757 614.398 27.8856 618.61 25.8206C622.924 23.7129 627.24 21.8397 631.452 20.172C643.689 15.3327 655.37 12.3922 665.557 11.5926C664.629 11.5926 636.941 11.5926 636.941 11.5926H540.489H115.196H81.465ZM387.446 11.9657C385.775 37.4706 390.72 74.8278 401.94 116.304C403.935 123.684 406.107 131.195 408.495 138.791C409.978 143.483 411.508 148.1 413.077 152.646C412.156 154 411.229 155.346 410.36 156.696C396.36 178.151 388.177 198.427 386.113 216.059C380.196 196.245 375.741 174.541 373.218 151.527C372.502 144.933 371.941 138.413 371.566 131.971C368.803 85.1742 374.912 42.7534 387.446 11.9657ZM108.056 45.1642C108.375 45.1566 108.69 45.1642 109.015 45.1642H172.055C177.443 45.1641 181.611 46.1741 184.578 48.2016C187.528 50.241 188.634 52.879 187.935 56.0882L180.421 90.0328H158.2L165.5 56.9941H109.868L89.7779 147.797L82.5307 180.676H138.11L138.164 180.463L149.301 130.159H123.19L125.694 118.808H174.027L160.172 181.582C159.984 182.475 159.656 183.285 159.212 184.086C158.07 186.167 156.077 187.949 153.297 189.415C149.444 191.444 144.831 192.453 139.442 192.453H76.4559C71.0674 192.453 66.9002 191.444 63.9332 189.415C60.9831 187.386 59.8598 184.795 60.576 181.582L88.3391 56.0882C89.0553 52.879 91.2892 50.241 95.16 48.2016C95.2964 48.1283 95.4499 48.1116 95.5863 48.0417C99.1193 46.272 103.266 45.2773 108.056 45.1642ZM206.852 45.1642H286.198C291.518 45.1641 295.7 46.1741 298.668 48.2016C301.652 50.241 302.794 52.879 302.078 56.0882L287.264 123.018C286.565 126.207 284.278 128.809 280.39 130.852C276.502 132.901 271.925 133.942 266.588 133.942H208.93L197.793 184.193L195.981 192.453H174.24L175.892 184.992L206.852 45.1642ZM316.466 45.1642H338.207L313.588 156.377L308.206 180.676H360.215C360.761 184.665 361.398 188.582 362.081 192.453H283.853L290.035 164.53L316.466 45.1642ZM225.982 56.9941L211.541 122.112H265.735L280.123 56.9941H225.982ZM180.421 202.684C180.634 202.677 180.846 202.684 181.061 202.684C183.584 202.684 185.788 203.127 187.562 203.963C189.455 204.85 190.808 206.167 191.558 207.906C192.292 209.594 192.483 211.511 192.091 213.608L191.931 214.407H185.697L185.75 213.661C185.911 212.196 185.729 211.044 185.164 210.251C185.09 210.152 184.983 210.02 184.897 209.931C184.757 209.788 184.545 209.623 184.364 209.505C183.492 208.955 182.127 208.652 180.368 208.652C178.032 208.652 176.286 209.059 175.092 209.878C173.933 210.679 173.199 211.575 172.961 212.649C172.722 213.74 173.114 214.314 173.387 214.621C173.396 214.629 173.43 214.664 173.44 214.674C173.786 214.968 174.986 215.659 178.716 216.539C182.092 217.357 184.328 218.093 185.59 218.724C187.5 219.696 188.834 220.955 189.533 222.507C190.233 224.042 190.386 225.839 189.96 227.783C189.533 229.676 188.568 231.421 187.135 233.058C185.72 234.695 183.919 235.991 181.753 236.895C179.605 237.782 177.247 238.28 174.826 238.28C171.756 238.28 169.292 237.816 167.366 236.895C165.353 235.94 163.902 234.433 163.049 232.472C162.231 230.562 162.056 228.394 162.516 226.024L162.676 225.278H168.804L168.751 226.024C168.598 227.44 168.749 228.582 169.124 229.435C169.482 230.253 170.164 230.931 171.256 231.46C172.415 232.022 173.865 232.312 175.519 232.312C177.002 232.312 178.358 232.063 179.568 231.619C180.762 231.193 181.711 230.63 182.393 229.914C183.058 229.198 183.448 228.441 183.618 227.623C183.789 226.89 183.748 226.269 183.459 225.758C183.135 225.212 182.493 224.728 181.487 224.319L176.265 222.774C173.349 222.04 171.386 221.341 170.243 220.642C168.691 219.721 167.572 218.54 166.992 217.125C166.413 215.727 166.351 214.177 166.726 212.489C167.118 210.681 167.99 208.961 169.337 207.427C170.701 205.875 172.462 204.658 174.559 203.856C176.414 203.161 178.365 202.753 180.421 202.684ZM236.374 202.791C236.711 202.764 237.028 202.791 237.386 202.791L241.223 203.217L242.502 203.323L240.637 208.066L240.264 208.812L237.333 208.546C236.467 208.546 235.832 208.679 235.415 208.972C235.387 208.993 235.334 209.056 235.308 209.079C235.252 209.128 235.158 209.213 235.095 209.292C234.838 209.628 234.526 210.23 234.295 211.317C234.295 211.317 234.185 211.777 234.082 212.169C235.429 212.169 238.665 212.169 238.665 212.169L237.493 217.445C237.493 217.445 234.142 217.445 233.017 217.445C232.675 218.98 228.487 237.748 228.487 237.748H222.306C222.306 237.748 226.324 219.713 226.835 217.445C225.795 217.445 223.265 217.445 223.265 217.445L224.437 212.169C224.437 212.169 226.982 212.169 227.954 212.169C228.125 211.436 228.38 210.517 228.38 210.517C228.756 208.812 229.148 207.587 229.659 206.734C230.359 205.557 231.345 204.573 232.59 203.856C233.616 203.261 234.912 202.904 236.374 202.791ZM251.135 203.057C251.135 203.057 249.519 210.328 249.11 212.169C250.303 212.169 253.106 212.169 253.106 212.169L251.934 217.445C251.934 217.445 248.994 217.445 247.937 217.445C247.613 218.911 245.06 230.287 245.06 230.287C245.06 230.287 244.847 231.654 244.847 232.046C244.847 232.059 244.845 232.089 244.847 232.099C244.847 232.103 244.845 232.149 244.847 232.152C244.848 232.155 244.898 232.15 244.9 232.152L245.539 232.206L248.47 231.992L248.15 236.735L248.204 237.588L243.994 238.067C242.323 238.067 241.097 237.795 240.21 237.215C239.273 236.601 238.727 235.787 238.505 234.763C238.471 234.576 238.399 234.303 238.399 233.911C238.399 233.144 238.544 231.845 239.038 229.595C239.038 229.595 241.278 219.559 241.756 217.445C240.954 217.445 238.825 217.445 238.825 217.445L239.997 212.169C239.997 212.169 242.076 212.169 242.928 212.169C243.201 210.942 244.154 206.734 244.154 206.734L249.11 204.123L251.135 203.057ZM54.7676 203.27H78.7473L77.4151 209.238C77.4151 209.238 61.418 209.238 59.8833 209.238C59.6104 210.449 58.5169 215.352 58.1247 217.125C60.3415 217.125 73.3119 217.125 73.3119 217.125L71.9797 223.093C71.9797 223.093 58.3272 223.093 56.7925 223.093C56.4685 224.577 53.542 237.748 53.542 237.748H47.0941L54.7676 203.27ZM86.9003 211.69C87.141 211.66 87.4039 211.69 87.6464 211.69C89.1811 211.69 90.5986 212.157 91.9627 213.128L92.8153 213.715L89.5115 219.15L88.6056 218.511C87.9405 218.084 87.2244 217.871 86.4741 217.871C85.8261 217.871 85.2228 218.101 84.609 218.511C83.961 218.937 83.4196 219.502 83.0103 220.269C82.2941 221.582 81.7698 223.053 81.4117 224.639L78.5341 237.748H72.3527L78.0545 212.169H83.8096C83.8096 212.169 83.6114 212.945 83.5432 213.235C83.816 213.03 84.1038 212.749 84.3425 212.596C85.1685 212.103 86.0409 211.795 86.9003 211.69ZM105.231 211.69C105.604 211.662 105.97 211.69 106.351 211.69C109.829 211.69 112.462 212.909 114.184 215.313C115.258 216.865 115.836 218.783 115.836 221.068C115.836 222.33 115.68 223.688 115.356 225.172L114.877 227.037C114.877 227.037 99.244 227.037 97.5047 227.037C97.4706 227.395 97.4514 227.778 97.4514 228.102C97.4514 229.433 97.7242 230.479 98.304 231.246C98.5795 231.622 98.8989 231.959 99.2632 232.206C99.95 232.654 100.837 232.898 101.874 232.898C103.136 232.898 104.245 232.551 105.285 231.886C106.274 231.255 107.22 230.247 108.056 228.849H114.664L114.077 230.127C112.815 232.685 111.055 234.68 108.855 236.096C106.655 237.511 104.027 238.28 101.128 238.28C97.3598 238.28 94.5547 237.061 92.8153 234.657C91.0931 232.304 90.7222 229.051 91.643 224.958C92.5638 220.798 94.4012 217.473 97.0784 215.153C99.478 213.073 102.201 211.919 105.231 211.69ZM132.995 211.69C133.367 211.662 133.733 211.69 134.114 211.69C137.592 211.69 140.225 212.909 141.947 215.313C143.021 216.865 143.599 218.783 143.599 221.068C143.599 222.313 143.443 223.652 143.119 225.118L142.64 227.037C142.64 227.037 127.007 227.037 125.268 227.037C125.251 227.275 125.232 227.491 125.215 227.729C125.202 227.819 125.22 227.955 125.215 228.049C125.214 228.065 125.215 228.088 125.215 228.102C125.215 228.358 125.251 228.61 125.268 228.849C125.353 229.82 125.607 230.633 126.067 231.246C126.155 231.366 126.237 231.513 126.334 231.619C127.115 232.455 128.22 232.898 129.637 232.898C130.899 232.898 132.025 232.551 133.048 231.886C134.037 231.255 134.983 230.247 135.819 228.849H142.48L141.84 230.127C140.579 232.685 138.818 234.68 136.618 236.096C134.418 237.511 131.79 238.28 128.891 238.28C125.123 238.28 122.318 237.061 120.578 234.657C119.453 233.122 118.927 231.168 118.927 228.849C118.927 228.49 118.946 228.105 118.98 227.729C119.048 226.843 119.184 225.947 119.406 224.958C120.327 220.815 122.111 217.473 124.788 215.153C127.188 213.073 129.964 211.919 132.995 211.69ZM208.611 211.69C208.991 211.66 209.342 211.69 209.73 211.69C213.276 211.69 216.003 212.89 217.776 215.26C219.533 217.63 219.959 220.828 219.055 224.852C218.356 227.99 217.346 230.524 215.964 232.366C214.583 234.207 212.822 235.712 210.742 236.735C208.679 237.758 206.494 238.28 204.294 238.28C200.679 238.28 197.987 237.044 196.248 234.657C195.122 233.139 194.542 231.185 194.542 228.849C194.542 227.587 194.681 226.246 195.022 224.745C196.045 220.175 198.134 216.695 201.204 214.461C203.457 212.834 205.945 211.895 208.611 211.69ZM302.238 211.69C302.687 211.662 303.104 211.69 303.57 211.69C305.719 211.69 307.407 211.907 308.686 212.436C310.05 212.981 311.018 213.753 311.563 214.674C312.092 215.543 312.363 216.611 312.363 217.924L311.723 221.814L310.551 227.09C309.545 231.592 309.323 233.28 309.272 233.911C309.221 234.763 309.3 235.595 309.538 236.362L309.965 237.748H303.677L303.41 236.948C303.308 236.573 303.338 236.096 303.304 235.669C302.11 236.403 300.914 237.053 299.84 237.428C298.254 237.974 296.609 238.28 294.937 238.28C292.039 238.28 289.892 237.526 288.596 236.042C287.607 234.951 287.157 233.617 287.157 232.099C287.157 231.519 287.234 230.918 287.37 230.287C287.66 228.991 288.187 227.791 289.022 226.717C289.841 225.66 290.809 224.79 291.9 224.159C292.957 223.528 294.136 223.081 295.364 222.774L299.147 222.134C302.063 221.793 304.239 221.369 305.808 220.909C305.842 220.738 305.915 220.536 305.915 220.536C306.162 219.438 306.131 218.614 305.861 218.191C305.842 218.164 305.777 218.108 305.755 218.084C305.697 218.023 305.609 217.926 305.542 217.871C304.9 217.364 303.807 217.125 302.344 217.125C300.69 217.125 299.467 217.396 298.614 217.924C297.779 218.453 297.005 219.421 296.323 220.802H289.875L290.461 219.523C291.229 217.75 292.143 216.279 293.285 215.153C294.428 214.028 295.971 213.156 297.762 212.542C299.134 212.089 300.632 211.789 302.238 211.69ZM329.255 211.69C329.495 211.66 329.759 211.69 330.001 211.69C331.553 211.69 333.006 212.157 334.371 213.128L335.17 213.715L331.866 219.15L330.96 218.511C330.295 218.084 329.615 217.871 328.882 217.871C328.234 217.871 327.595 218.101 326.964 218.511C326.316 218.937 325.845 219.502 325.418 220.269C324.719 221.582 324.178 223.053 323.82 224.639L320.889 237.748H314.707L320.409 212.169H326.164C326.164 212.169 326.019 212.945 325.951 213.235C326.224 213.03 326.495 212.749 326.75 212.596C327.563 212.103 328.396 211.795 329.255 211.69ZM347.533 211.69C347.905 211.662 348.271 211.69 348.652 211.69C352.131 211.69 354.78 212.909 356.485 215.313C357.577 216.865 358.137 218.783 358.137 221.068C358.137 222.33 357.928 223.688 357.604 225.172L357.178 227.037C357.178 227.037 341.528 227.037 339.806 227.037C339.772 227.395 339.699 227.778 339.699 228.102C339.699 229.433 339.989 230.479 340.552 231.246C340.64 231.366 340.775 231.513 340.872 231.619C340.928 231.679 341.026 231.777 341.085 231.833C341.847 232.526 342.885 232.898 344.176 232.898C345.438 232.898 346.546 232.551 347.586 231.886C348.575 231.255 349.504 230.247 350.357 228.849H357.018L356.379 230.127C355.117 232.685 353.339 234.68 351.156 236.096C348.94 237.511 346.346 238.28 343.43 238.28C339.661 238.28 336.909 237.061 335.17 234.657C333.448 232.304 333.041 229.051 333.944 224.958C334.865 220.798 336.649 217.473 339.326 215.153C341.741 213.073 344.505 211.919 347.533 211.69ZM254.225 212.169H260.567C260.567 212.169 261.349 227.348 261.366 227.57C261.622 227.026 261.82 226.569 261.845 226.504L268.826 212.169H274.635C274.635 212.169 275.167 227.165 275.167 227.25C275.338 226.943 283.107 212.169 283.107 212.169H289.395L275.541 237.748H269.839C269.839 237.748 269.287 223.878 269.253 223.093C266.899 227.919 262.112 237.748 262.112 237.748H256.25L254.225 212.169ZM105.338 217.019C103.869 217.081 102.535 217.61 101.288 218.617C100.299 219.402 99.632 220.478 99.1033 221.655H109.601C109.618 221.467 109.654 221.239 109.654 221.068C109.654 220.096 109.482 219.342 109.175 218.83C108.425 217.603 107.312 217.019 105.658 217.019C105.559 217.019 105.436 217.014 105.338 217.019ZM133.101 217.019C131.632 217.081 130.298 217.61 129.051 218.617C128.062 219.402 127.412 220.478 126.866 221.655H137.364C137.381 221.467 137.418 221.239 137.418 221.068C137.418 220.096 137.262 219.342 136.938 218.83C136.789 218.581 136.588 218.333 136.405 218.138C135.693 217.402 134.713 217.019 133.421 217.019C133.322 217.019 133.199 217.014 133.101 217.019ZM347.853 217.019C346.342 217.065 344.931 217.576 343.643 218.617C342.671 219.402 342.004 220.478 341.458 221.655H351.902C351.92 221.467 351.956 221.239 351.956 221.068C351.956 220.096 351.8 219.342 351.476 218.83C350.743 217.62 349.613 217.036 347.959 217.019C347.91 217.019 347.901 217.017 347.853 217.019ZM208.238 217.125C206.828 217.292 205.517 217.936 204.294 219.043C202.828 220.374 201.764 222.462 201.15 225.225C200.894 226.384 200.777 227.376 200.777 228.262C200.777 229.473 201.01 230.424 201.47 231.14C201.592 231.324 201.755 231.518 201.896 231.673C202.654 232.478 203.713 232.898 205.04 232.898C206.762 232.898 208.28 232.257 209.73 230.927C211.196 229.58 212.243 227.469 212.874 224.639C213.453 222.047 213.372 220.111 212.554 218.884C211.769 217.69 210.623 217.125 209.037 217.125C208.768 217.125 208.499 217.094 208.238 217.125ZM304.529 226.451C303.08 226.843 301.456 227.173 299.307 227.463C297.704 227.702 296.562 227.953 295.897 228.209C295.317 228.448 294.85 228.778 294.458 229.222C294.083 229.648 293.831 230.095 293.712 230.607C293.678 230.812 293.658 231.023 293.658 231.193C293.658 231.207 293.658 231.233 293.658 231.246C293.66 231.287 293.654 231.367 293.658 231.406C293.669 231.484 293.691 231.601 293.712 231.673C293.719 231.697 293.756 231.756 293.765 231.779C293.784 231.825 293.795 231.895 293.818 231.939C293.843 231.982 293.896 232.058 293.925 232.099C293.97 232.16 294.03 232.255 294.085 232.312C294.511 232.79 295.362 233.005 296.589 233.005C297.936 233.005 299.232 232.749 300.426 232.152C301.603 231.573 302.551 230.707 303.25 229.701C303.762 228.985 304.171 227.883 304.529 226.451Z" fill="#BD0000"/>
<path fill-rule="evenodd" clip-rule="evenodd" d="M348.027 217.037C348.01 217.037 347.993 217.037 347.976 217.037C349.63 217.054 350.721 217.617 351.454 218.828C351.778 219.339 351.949 220.107 351.949 221.079C351.949 221.249 351.915 221.471 351.898 221.658H351.966C351.966 221.471 352 221.249 352 221.079C352 220.107 351.847 219.339 351.523 218.828C350.789 217.6 349.681 217.037 348.027 217.037Z" fill="#BD0000"/>
<path fill-rule="evenodd" clip-rule="evenodd" d="M0.987972 357.958H13.7089L19.4214 334.085H40.0887L42.7489 323.854H21.9963L25.4409 308.507H47.5235L50.1836 296.57H15.3118L0.987972 357.958Z" fill="#BD0000"/>
<path fill-rule="evenodd" clip-rule="evenodd" d="M58.0447 357.958L61.8644 341.929C63.8766 333.25 68.1226 325.559 76.1541 325.559C76.8703 325.559 77.5695 325.917 78.0981 326.002L81.2016 313.708C80.4854 313.708 79.701 313.623 78.8143 313.623C72.8972 313.623 67.935 317.783 64.6268 323.752H64.2858C64.7803 320.836 65.2066 318.073 65.5306 315.328H54.566C53.9351 318.875 52.9631 325.815 51.4796 332.073L45.2385 357.958H58.0447Z" fill="#BD0000"/>
<path fill-rule="evenodd" clip-rule="evenodd" d="M114.624 346.448C111.094 348.17 107.07 347.727 102.381 347.727C98.6802 347.727 95.8154 347.079 94.2466 345.817C93.4281 344.436 93.0871 342.287 93.1553 340.906C110.429 341.367 121.326 337.376 121.871 326.463C122.28 318.227 116.261 313.623 107.513 313.623C91.8934 313.623 81.6621 327.401 80.9971 340.667C80.4173 352.246 86.4197 357.958 98.7996 357.958C103.557 357.958 109.866 357.413 115.033 355.861L114.624 346.448ZM109.952 326.463C109.747 330.521 104.734 330.76 94.8605 330.675C95.9348 327.111 99.5499 323.854 105.467 323.854C108.383 323.854 110.054 324.962 109.952 326.463Z" fill="#BD0000"/>
<path fill-rule="evenodd" clip-rule="evenodd" d="M159.829 346.448C156.3 348.17 152.275 347.727 147.603 347.727C143.886 347.727 141.038 347.079 139.469 345.817C138.651 344.436 138.293 342.287 138.361 340.906C155.652 341.367 166.531 337.376 167.094 326.463C167.503 318.227 161.484 313.623 152.736 313.623C137.099 313.623 126.868 327.401 126.202 340.667C125.64 352.246 131.642 357.958 144.005 357.958C148.78 357.958 155.089 357.413 160.256 355.861L159.829 346.448ZM155.174 326.463C154.97 330.521 149.956 330.76 140.066 330.675C141.157 327.111 144.755 323.854 150.672 323.854C153.588 323.854 155.277 324.962 155.174 326.463Z" fill="#BD0000"/>
<path fill-rule="evenodd" clip-rule="evenodd" d="M225.651 357.958C225.753 352.553 227.049 344.061 228.396 338.485L233.87 315.328C230.392 314.151 224.969 313.623 219.751 313.623C198.572 313.623 188.068 329.311 187.335 344.01C186.874 353.235 191.871 357.958 199.646 357.958C204.677 357.958 210.355 355.52 214.772 348.187H214.959C214.618 351.717 214.209 355.145 213.987 357.958H225.651ZM216.903 333.608C214.414 344.453 209.332 347.727 205.546 347.727C202.017 347.727 200.482 345.22 200.687 341.571C201.096 333.335 207.61 323.854 215.829 323.854C217.159 323.854 218.199 323.615 219.171 323.376L216.903 333.608Z" fill="#BD0000"/>
<path fill-rule="evenodd" clip-rule="evenodd" d="M233.99 355.946C236.445 357.856 241.595 357.873 246.966 357.958C258.442 358.044 267.105 353.03 267.617 343.822C267.906 337.683 263.149 334.051 258.494 331.613C255.134 329.993 253.446 328.441 253.531 326.633C253.651 324.195 255.936 323.854 259.295 323.854C263.081 323.854 266.116 324.314 267.855 324.655L271.3 315.413C269.339 314.236 265.417 313.623 260.386 313.623C249.251 313.623 241.1 319.506 240.64 328.441C240.367 333.966 244.34 337.683 249.149 340.207C253.037 342.202 254.367 343.737 254.265 345.902C254.145 348.085 252.201 347.727 248.672 347.727C244.528 347.727 239.941 347.181 237.519 346.806L233.99 355.946Z" fill="#BD0000"/>
<path fill-rule="evenodd" clip-rule="evenodd" d="M302.028 357.958L312.344 315.328H299.709L289.324 357.958H302.028ZM307.945 310.212C312.276 310.212 316.13 306.631 316.369 300.492C316.573 296.332 313.879 294.865 309.906 294.865C305.762 294.865 301.977 297.559 301.755 301.584C301.55 305.642 304.245 310.212 307.945 310.212Z" fill="#BD0000"/>
<path fill-rule="evenodd" clip-rule="evenodd" d="M326.413 357.958L330.914 338.758C333.25 328.987 338.281 325.559 342.425 325.559C345.699 325.559 346.653 326.957 346.5 328.987C346.415 330.624 346.159 332.346 345.818 333.881L340.088 357.958H352.809L358.846 332.704C359.306 330.521 359.818 327.264 359.92 325.286C360.295 317.596 356.459 314.799 349.399 314.799C343.738 314.799 338.23 317.425 333.881 323.121H333.711L334.87 315.328H323.65C322.917 318.977 321.979 323.393 320.649 328.543L313.692 357.958H326.413Z" fill="#BD0000"/>
<path fill-rule="evenodd" clip-rule="evenodd" d="M381.15 357.958H393.871L399.601 334.085H420.251L422.911 323.854H402.159L405.603 308.507H427.686L430.346 296.57H395.474L381.15 357.958Z" fill="#BD0000"/>
<path fill-rule="evenodd" clip-rule="evenodd" d="M438.207 357.958L442.027 341.929C444.039 333.25 448.285 325.559 456.316 325.559C457.033 325.559 457.732 325.917 458.26 326.002L461.364 313.708C460.648 313.708 459.863 313.623 458.976 313.623C453.059 313.623 448.097 317.783 444.789 323.752H444.448C444.943 320.836 445.369 318.073 445.693 315.328H434.728C434.114 318.875 433.125 325.815 431.642 332.073L425.401 357.958H438.207Z" fill="#BD0000"/>
<path fill-rule="evenodd" clip-rule="evenodd" d="M494.786 346.448C491.256 348.17 487.232 347.727 482.543 347.727C478.842 347.727 475.978 347.079 474.409 345.817C473.59 344.436 473.249 342.287 473.317 340.906C490.591 341.367 501.488 337.376 502.033 326.463C502.443 318.227 496.423 313.623 487.675 313.623C472.056 313.623 461.824 327.401 461.159 340.667C460.579 352.246 466.599 357.958 478.962 357.958C483.719 357.958 490.046 357.413 495.195 355.861L494.786 346.448ZM490.114 326.463C489.909 330.521 484.896 330.76 475.023 330.675C476.097 327.111 479.712 323.854 485.629 323.854C488.545 323.854 490.216 324.962 490.114 326.463Z" fill="#BD0000"/>
<path fill-rule="evenodd" clip-rule="evenodd" d="M539.992 346.448C536.462 348.17 532.437 347.727 527.765 347.727C524.048 347.727 521.2 347.079 519.631 345.817C518.813 344.436 518.455 342.287 518.523 340.906C535.814 341.367 546.693 337.376 547.256 326.463C547.665 318.227 541.646 313.623 532.898 313.623C517.261 313.623 507.03 327.401 506.365 340.667C505.802 352.246 511.804 357.958 524.167 357.958C528.942 357.958 535.251 357.413 540.418 355.861L539.992 346.448ZM535.336 326.463C535.132 330.521 530.118 330.76 520.228 330.675C521.319 327.111 524.917 323.854 530.834 323.854C533.75 323.854 535.439 324.962 535.336 326.463Z" fill="#BD0000"/>
<path fill-rule="evenodd" clip-rule="evenodd" d="M590.534 294.865L585.743 314.236C584.003 313.52 581.735 313.623 579.962 313.623C563.626 313.623 552.065 327.605 551.297 342.748C550.786 353.422 556.481 357.958 563.814 357.958C568.946 357.958 574.352 355.69 578.444 349.824H578.615L577.643 357.958H589.204C589.733 352.843 590.841 346.755 592.086 341.196L603.153 294.865H590.534ZM580.576 336.507C578.581 344.913 573.874 347.727 570.157 347.727C566.457 347.727 564.393 345.152 564.649 340.565C565.075 332.073 570.907 323.854 578.496 323.854C580.627 323.854 582.452 324.178 583.458 324.655L580.576 336.507Z" fill="#BD0000"/>
<path fill-rule="evenodd" clip-rule="evenodd" d="M619.54 357.958C634.376 357.958 645.818 346.721 646.619 331.425C647.114 321.296 640.804 313.623 629.158 313.623C613.777 313.623 602.744 326.071 601.976 341.111C601.448 352.058 608.507 357.958 619.54 357.958ZM621.535 347.727C617.204 347.727 614.817 344.965 615.073 340.838C615.414 333.966 619.66 323.854 626.975 323.854C632.022 323.854 633.574 327.725 633.37 331.527C632.994 339.03 628.424 347.727 621.535 347.727Z" fill="#BD0000"/>
<path fill-rule="evenodd" clip-rule="evenodd" d="M662.427 357.958L667.031 338.485C668.958 329.805 673.766 323.854 678.081 323.854C681.184 323.854 682.037 326.122 681.883 329.089C681.798 330.624 681.457 332.346 681.099 334.051L675.403 357.958H687.681L692.285 338.399C694.399 329.447 698.935 323.854 703.164 323.854C706.08 323.854 707.291 325.934 707.155 328.901C707.069 330.624 706.711 332.516 706.268 334.239L700.743 357.958H713.106L719.057 332.704C719.517 330.436 720.046 326.906 720.131 325.099C720.506 317.596 716.84 313.623 710.224 313.623C704.563 313.623 699.055 316.18 694.877 321.569C694.723 317.681 691.944 313.623 685.055 313.623C679.479 313.623 674.159 316.146 669.895 321.859H669.725L670.867 315.328H659.92C659.204 318.977 658.334 323.393 657.004 328.543L650.149 357.958H662.427Z" fill="#BD0000"/>
<path d="M391.503 243.546C392.195 245.325 392.887 247.102 393.608 248.84C394.719 251.2 396.002 253.46 397.545 255.57C405.881 266.901 419.841 273.105 437.565 274.65H456.63C462.658 274.179 468.975 273.303 475.522 272.022C486.814 269.814 498.783 266.422 511.215 261.89C520.632 258.456 530.309 254.393 540.13 249.672C561.516 239.42 583.61 226.197 605.285 210.239C612.424 204.989 619.274 199.601 625.85 194.122C631.878 189.106 637.661 184.013 643.185 178.863C658.601 164.006 670.239 148.917 676.83 135.668C683.694 121.871 685.064 110.074 679.44 102.643C675.993 98.0816 670.225 95.6372 662.798 95.0618C696.255 69.9571 715.753 39.5034 708.759 20.3029C706.538 14.1752 701.649 9.60367 694.64 7.07557C691.525 5.95507 688.021 5.24547 684.199 4.92247H673.902C659.524 5.95937 638.615 11.1078 620.877 19.801" stroke="#BD0000" stroke-width="8.52611"/>
</svg>
