<svg width="144" height="144" viewBox="0 0 576 577" fill="none" xmlns="http://www.w3.org/2000/svg">
<path d="M32 160.275C32 89.5828 89.3076 32.2752 160 32.2752H288V288.275H32V160.275Z" fill="#C4936B"/>
<path d="M288 288.275H544V416.275C544 486.968 486.692 544.275 416 544.275H288V288.275Z" fill="#C4936B"/>
<path d="M32 288.275H288V544.275H160C89.3076 544.275 32 486.968 32 416.275V288.275Z" fill="#521710"/>
<path d="M288 32.2752H416C486.692 32.2752 544 89.5828 544 160.275V288.275H288V32.2752Z" fill="#521710"/>
<path d="M455.158 287.655C459.465 282.322 468.516 282.488 475.395 288.054C482.281 293.598 484.37 302.415 480.071 307.74C475.764 313.073 466.713 312.892 459.842 307.333C452.956 301.789 450.859 292.98 455.158 287.655ZM459.91 251.421C465.137 244.308 492.343 245.477 499.47 250.719C506.59 255.954 508.114 265.97 502.872 273.083C497.645 280.195 489.899 277.306 482.786 272.079C475.674 266.837 454.683 258.533 459.91 251.421ZM462.331 222.103C467.136 214.689 504.23 204.763 511.644 209.567C519.066 214.379 525.153 220.874 520.333 228.288C515.528 235.702 505.293 238.712 497.879 233.907C490.457 229.11 457.527 229.517 462.331 222.103ZM439.742 186.57C444.614 179.209 482.673 163.822 490.042 168.702C497.411 173.582 504.298 176.154 499.425 183.516C494.545 190.885 482.56 196.443 472.378 195.388C463.576 194.475 434.862 193.924 439.742 186.57Z" fill="#A0041E"/>
<path d="M464.715 323.881C465.529 313.91 465.092 305.704 475.055 306.541C485.027 307.371 489.454 318.496 488.632 328.474C487.802 338.431 479.724 371.157 469.768 370.328C459.789 369.49 463.885 333.837 464.715 323.881ZM499.033 284.585C494.53 275.632 491.068 264.537 499.998 260.042C508.936 255.539 517.489 262.583 522 271.514C526.48 280.444 537.696 312.718 528.765 317.214C519.828 321.701 503.528 293.515 499.033 284.585ZM524.059 241.246C515.325 236.328 507.541 228.997 512.443 220.293C517.354 211.581 526.148 210.842 534.867 215.76C543.564 220.67 573.1 243.026 568.19 251.737C563.257 260.456 532.755 246.171 524.059 241.246ZM515.31 184.406C507.609 190.839 497.864 192.137 491.46 184.466C485.057 176.78 489.703 167.247 497.396 160.835C505.082 154.432 523.154 132.86 540.622 143.48C549.168 148.692 522.98 178.032 515.31 184.406ZM288.621 121.117C293.953 116.81 293.787 107.759 288.228 100.888C282.685 94.0016 273.868 91.9124 268.543 96.2116C263.21 100.518 263.391 109.569 268.942 116.433C274.486 123.319 283.296 125.416 288.621 121.117ZM324.855 116.365C331.967 111.138 330.791 83.9249 325.564 76.8123C320.329 69.6922 310.313 68.1687 303.193 73.4031C296.073 78.6376 298.969 86.3762 304.196 93.4887C309.438 100.601 317.742 121.592 324.855 116.365ZM354.172 113.944C361.586 109.139 371.512 72.0455 366.708 64.6312C361.903 57.217 355.409 51.1302 347.995 55.9499C340.573 60.7469 337.564 70.982 342.368 78.3962C347.165 85.818 346.758 118.748 354.172 113.944ZM389.705 136.534C397.074 131.669 412.453 93.6019 407.58 86.2404C402.7 78.8714 400.136 71.9927 392.767 76.8576C385.406 81.7451 379.847 93.7301 380.903 103.912C381.8 112.699 382.351 141.414 389.705 136.534Z" fill="#A0041E"/>
<path d="M252.394 111.56C262.365 110.746 270.571 111.183 269.742 101.227C268.912 91.2561 257.787 86.8287 247.808 87.6508C237.852 88.4805 205.125 96.5585 205.963 106.522C206.785 116.486 242.438 112.39 252.394 111.56ZM291.69 77.2422C300.643 81.7451 311.738 85.2071 316.226 76.2692C320.736 67.339 313.684 58.7783 304.754 54.2679C295.824 49.7876 263.557 38.5795 259.062 47.5098C254.566 56.4401 282.76 72.7469 291.69 77.2422ZM335.037 52.2239C339.947 60.9505 347.278 68.7343 355.982 63.8317C364.694 58.9216 365.433 50.1271 360.523 41.4155C355.613 32.719 333.249 3.17515 324.538 8.10039C315.819 13.0181 330.104 43.5198 335.037 52.2239ZM391.869 60.9656C385.436 68.6664 384.146 78.4189 391.809 84.8149C399.502 91.226 409.029 86.5723 415.44 78.879C421.851 71.2007 443.415 53.1214 432.795 35.653C427.583 27.1074 398.243 53.2949 391.869 60.9656ZM432.931 367.386C429.363 376.731 418.894 381.408 409.557 377.832C400.211 374.265 395.543 363.788 399.11 354.443C402.685 345.121 421.444 292.12 430.781 295.695C440.111 299.262 436.498 358.056 432.931 367.386Z" fill="#A0041E"/>
<path d="M412.641 374.913C425.728 343.409 324.53 337.201 298.871 355.891C273.219 374.574 269.508 389.9 270.164 395.067C270.82 400.234 279.901 383.157 304.052 379.084C323.173 375.849 403.613 396.673 412.641 374.913ZM208.889 143.344C199.536 146.904 194.868 157.381 198.443 166.719C202.018 176.071 212.494 180.74 221.84 177.172C231.162 173.597 284.155 154.832 280.58 145.494C277.013 136.164 218.219 139.777 208.889 143.344Z" fill="#A0041E"/>
<path d="M201.354 163.626C232.867 150.548 239.067 251.737 220.384 277.404C201.694 303.049 186.367 306.76 181.208 306.111C176.042 305.455 193.118 296.374 197.191 272.223C200.419 253.095 179.602 172.662 201.354 163.626Z" fill="#A0041E"/>
<path d="M195.929 274.24C193.48 295.973 203.151 316.275 222.356 334.111C245.387 355.497 280.133 356.333 284.578 356.333C289.022 356.333 298.16 406.6 262.356 405.222C212.596 403.311 169.262 372.2 164.951 316.702C162.884 290.115 169.076 273.684 175.373 266.093C185.289 254.137 197.222 262.755 195.929 274.24Z" fill="#DA2F47"/>
<path d="M292.24 392.031C299.547 392.937 308.924 392.382 313.809 388.711C320.382 383.773 317.209 369.017 313.307 372.849C308.956 377.115 303.289 383.76 294.858 383.52C294.902 383.324 294.956 383.142 295 382.942C298.862 365.804 288.756 353.071 281.853 351.089C269.756 347.613 279.329 369.155 274.022 371.889C258.333 379.977 273.333 389.235 268.333 391.457C263.333 393.68 249.209 409.666 265.507 409.666C278.884 409.666 287.298 404.369 292.24 392.031Z" fill="#77B255"/>
<path d="M472.68 284.615C457.595 299.7 382.17 344.955 306.745 269.53C231.32 194.105 276.575 118.681 291.66 103.596C352 118.681 384.983 91.324 434.967 141.308C484.951 191.292 450.052 216.733 472.68 284.615ZM411.586 371.006C439.462 390.692 352.882 435.11 321.212 432.975C289.548 430.848 271.627 412.309 269.433 407.595C267.238 402.881 297.86 396.877 314.144 389.282C322.411 385.435 392.345 357.422 411.586 371.006ZM205.269 164.69C185.59 136.82 141.165 223.393 143.292 255.056C145.419 286.719 163.951 304.633 168.673 306.835C173.394 309.038 179.391 278.408 186.986 262.123C190.832 253.857 218.853 183.931 205.269 164.69Z" fill="#BE1931"/>
<path d="M315.072 275.805C322.645 263.179 327.389 264.167 334.969 268.715C342.549 273.264 350.092 279.644 342.512 292.263C334.939 304.889 322.652 311.444 315.072 306.895C307.499 302.355 307.492 288.439 315.072 275.805ZM284.012 233.764C296.646 226.183 303.019 233.733 307.56 241.306C312.108 248.886 313.096 253.63 300.47 261.203C287.836 268.783 273.92 268.776 269.372 261.196C264.824 253.631 271.379 241.344 284.012 233.764Z" fill="#A0041E"/>
<path d="M325.601 303.471C319.353 297.223 309.222 297.223 302.974 303.471C296.726 309.72 296.726 319.85 302.974 326.099C309.222 332.347 319.353 332.347 325.601 326.099C331.85 319.85 331.85 309.72 325.601 303.471Z" fill="#292F33"/>
<path d="M272.804 250.674C266.556 244.425 256.425 244.425 250.177 250.674C243.928 256.922 243.928 267.053 250.177 273.301C256.425 279.55 266.556 279.55 272.804 273.301C279.052 267.053 279.052 256.922 272.804 250.674Z" fill="#292F33"/>
<path d="M446.1 265.14C448.936 264.416 474.648 282.646 457.957 288.024C441.265 293.402 443.279 265.849 446.1 265.14Z" fill="#DD2E44"/>
<path d="M429.182 269.417C432.523 269.364 456.177 290.513 433.089 294.503C410.024 298.486 424.4 269.492 429.182 269.417Z" fill="#DD2E44"/>
<path d="M404.82 267.139C409.413 268.248 427.221 297.098 400.86 292.323C376.966 287.979 398.748 265.683 404.82 267.139Z" fill="#DD2E44"/>
<path d="M377.079 257.998C386.937 263.345 392.737 293.296 367.575 280.791C342.406 268.278 367.221 252.65 377.079 257.998ZM311.821 130.862C312.53 128.026 294.308 102.321 288.937 119.005C283.56 135.696 311.112 133.683 311.821 130.862Z" fill="#DD2E44"/>
<path d="M307.537 147.772C307.59 144.431 286.441 120.777 282.451 143.865C278.476 166.937 307.469 152.561 307.537 147.772Z" fill="#DD2E44"/>
<path d="M309.815 172.134C308.706 167.541 279.856 149.733 284.638 176.101C288.983 199.996 311.278 178.213 309.815 172.134Z" fill="#DD2E44"/>
<path d="M318.956 199.875C313.609 190.017 283.658 184.217 296.163 209.379C308.684 234.556 324.312 209.741 318.956 199.875Z" fill="#DD2E44"/>
<path d="M272.057 170.731C275.18 167.609 271.597 204.212 321.83 254.445C372.071 304.686 408.659 301.088 405.536 304.21C402.414 307.333 356.48 311.723 310.516 265.759C264.553 219.795 268.935 173.854 272.057 170.731Z" fill="#A0041E"/>
<path d="M454.879 230.113C451.757 233.236 458.409 199.702 417.491 158.784C376.573 117.866 343.032 124.511 346.155 121.388C349.277 118.266 391.364 110.029 428.805 147.47C466.246 184.911 458.002 226.99 454.879 230.113Z" fill="#DD2E44"/>
</svg>
