<svg width="592" height="592" viewBox="0 0 592 592" fill="none" xmlns="http://www.w3.org/2000/svg">
<path d="M0 208C0 137.308 57.3076 80 128 80H256V336H0V208Z" fill="#C4936B"/>
<path d="M256 336H512V464C512 534.692 454.692 592 384 592H256V336Z" fill="#C4936B"/>
<path d="M0 336H256V592H128C57.3076 592 0 534.692 0 464V336Z" fill="#521710"/>
<path d="M256 80H384C454.692 80 512 137.308 512 208V336H256V80Z" fill="#521710"/>
<path d="M423.158 335.379C427.465 330.047 436.516 330.213 443.395 335.779C450.281 341.323 452.37 350.14 448.071 355.465C443.764 360.798 434.713 360.617 427.842 355.058C420.956 349.514 418.859 340.704 423.158 335.379ZM427.91 299.145C433.137 292.033 460.343 293.202 467.47 298.444C474.59 303.678 476.114 313.695 470.872 320.807C465.645 327.92 457.899 325.031 450.786 319.804C443.674 314.562 422.683 306.258 427.91 299.145ZM430.331 269.828C435.136 262.414 472.23 252.488 479.644 257.292C487.066 262.104 493.153 268.598 488.333 276.013C483.528 283.427 473.293 286.436 465.879 281.632C458.457 276.835 425.527 277.242 430.331 269.828ZM407.742 234.295C412.614 226.934 450.673 211.547 458.042 216.427C465.411 221.307 472.298 223.879 467.425 231.24C462.545 238.609 450.56 244.168 440.378 243.112C431.576 242.2 402.862 241.649 407.742 234.295Z" fill="#A0041E"/>
<path d="M432.715 371.606C433.529 361.635 433.092 353.429 443.055 354.266C453.027 355.095 457.454 366.221 456.632 376.199C455.802 386.155 447.724 418.882 437.768 418.052C427.789 417.215 431.885 381.562 432.715 371.606ZM467.033 332.31C462.53 323.357 459.068 312.262 467.998 307.766C476.936 303.264 485.489 310.308 490 319.239C494.48 328.169 505.696 360.443 496.765 364.938C487.828 369.426 471.528 341.24 467.033 332.31ZM492.059 288.971C483.325 284.053 475.541 276.722 480.443 268.018C485.354 259.306 494.148 258.567 502.867 263.485C511.564 268.395 541.1 290.751 536.19 299.462C531.257 308.181 500.755 293.896 492.059 288.971ZM483.31 232.131C475.609 238.564 465.864 239.862 459.46 232.191C453.057 224.505 457.703 214.971 465.396 208.56C473.082 202.157 491.154 180.585 508.622 191.205C517.168 196.417 490.98 225.757 483.31 232.131ZM256.621 168.842C261.953 164.535 261.787 155.484 256.228 148.613C250.685 141.726 241.868 139.637 236.543 143.936C231.21 148.243 231.391 157.294 236.942 164.158C242.486 171.044 251.296 173.141 256.621 168.842ZM292.855 164.09C299.967 158.863 298.791 131.65 293.564 124.537C288.329 117.417 278.313 115.893 271.193 121.128C264.073 126.362 266.969 134.101 272.196 141.214C277.438 148.326 285.742 169.317 292.855 164.09ZM322.172 161.669C329.586 156.864 339.512 119.77 334.708 112.356C329.903 104.942 323.409 98.855 315.995 103.675C308.573 108.472 305.564 118.707 310.368 126.121C315.165 133.543 314.758 166.473 322.172 161.669ZM357.705 184.258C365.074 179.394 380.453 141.327 375.58 133.965C370.7 126.596 368.136 119.718 360.767 124.582C353.406 129.47 347.847 141.455 348.903 151.637C349.8 160.424 350.351 189.138 357.705 184.258Z" fill="#A0041E"/>
<path d="M220.394 159.285C230.365 158.471 238.571 158.908 237.742 148.952C236.912 138.981 225.787 134.554 215.808 135.376C205.852 136.205 173.125 144.283 173.963 154.247C174.785 164.211 210.438 160.115 220.394 159.285ZM259.69 124.967C268.643 129.47 279.738 132.932 284.226 123.994C288.736 115.064 281.684 106.503 272.754 101.993C263.824 97.5124 231.557 86.3043 227.062 95.2346C222.566 104.165 250.76 120.472 259.69 124.967ZM303.037 99.9487C307.947 108.675 315.278 116.459 323.982 111.557C332.694 106.646 333.433 97.8519 328.523 89.1403C323.613 80.4438 301.249 50.8999 292.538 55.8252C283.819 60.7429 298.104 91.2446 303.037 99.9487ZM359.87 108.69C353.436 116.391 352.146 126.144 359.809 132.54C367.502 138.951 377.029 134.297 383.44 126.604C389.851 118.926 411.415 100.846 400.795 83.3778C395.583 74.8322 366.243 101.02 359.87 108.69ZM400.931 415.111C397.363 424.456 386.894 429.132 377.557 425.557C368.211 421.99 363.543 411.513 367.11 402.168C370.685 392.845 389.444 339.845 398.781 343.42C408.111 346.987 404.498 405.781 400.931 415.111Z" fill="#A0041E"/>
<path d="M380.641 422.638C393.728 391.133 292.53 384.926 266.871 403.616C241.219 422.299 237.508 437.625 238.164 442.792C238.82 447.958 247.902 430.882 272.053 426.809C291.173 423.574 371.613 444.398 380.641 422.638ZM176.889 191.069C167.536 194.629 162.868 205.106 166.443 214.443C170.018 223.796 180.494 228.465 189.84 224.897C199.162 221.322 252.155 202.556 248.58 193.219C245.013 183.889 186.219 187.502 176.889 191.069Z" fill="#A0041E"/>
<path d="M169.354 211.351C200.867 198.272 207.067 299.462 188.384 325.129C169.694 350.774 154.367 354.484 149.208 353.836C144.042 353.18 161.118 344.098 165.191 319.948C168.419 300.82 147.602 220.387 169.354 211.351Z" fill="#A0041E"/>
<path d="M156.743 350.372C154.784 367.758 162.521 384 177.884 398.268C196.309 415.378 224.107 416.046 227.662 416.046C231.218 416.046 238.528 456.26 209.884 455.157C170.076 453.628 135.41 428.74 131.961 384.341C130.308 363.072 135.26 349.927 140.299 343.854C148.231 334.29 157.778 341.184 156.743 350.372Z" fill="#DA2F47"/>
<path d="M233.792 444.604C239.637 445.33 247.14 444.885 251.047 441.948C256.306 437.998 253.767 426.194 250.645 429.259C247.164 432.672 242.631 437.988 235.886 437.796C235.922 437.639 235.964 437.493 236 437.333C239.09 423.623 231.004 413.436 225.483 411.851C215.804 409.07 223.463 426.304 219.218 428.491C206.667 434.962 218.667 442.368 214.667 444.146C210.667 445.924 199.367 458.713 212.405 458.713C223.108 458.713 229.838 454.475 233.792 444.604Z" fill="#77B255"/>
<path d="M440.68 332.34C425.595 347.425 350.17 392.68 274.745 317.255C199.32 241.83 244.575 166.405 259.66 151.32C320 166.405 352.983 139.049 402.967 189.033C452.951 239.017 418.052 264.458 440.68 332.34ZM379.586 418.731C407.462 438.417 320.882 482.835 289.212 480.7C257.548 478.573 239.627 460.034 237.433 455.32C235.238 450.606 265.86 444.602 282.144 437.007C290.411 433.16 360.345 405.147 379.586 418.731ZM173.269 212.414C153.59 184.545 109.165 271.118 111.292 302.781C113.419 334.444 131.951 352.357 136.673 354.56C141.394 356.762 147.391 326.132 154.986 309.848C158.832 301.582 186.853 231.655 173.269 212.414Z" fill="#BE1931"/>
<path d="M283.072 323.53C290.645 310.904 295.389 311.892 302.969 316.44C310.549 320.988 318.092 327.369 310.512 339.988C302.939 352.614 290.652 359.168 283.072 354.62C275.499 350.08 275.492 336.164 283.072 323.53ZM252.012 281.488C264.646 273.908 271.019 281.458 275.56 289.031C280.108 296.611 281.096 301.355 268.47 308.928C255.836 316.508 241.92 316.501 237.372 308.92C232.824 301.355 239.379 289.069 252.012 281.488Z" fill="#A0041E"/>
<path d="M293.601 351.196C287.353 344.948 277.222 344.948 270.974 351.196C264.726 357.444 264.726 367.575 270.974 373.823C277.222 380.072 287.353 380.072 293.601 373.823C299.85 367.575 299.85 357.444 293.601 351.196Z" fill="#292F33"/>
<path d="M240.804 298.399C234.556 292.15 224.425 292.15 218.177 298.399C211.928 304.647 211.928 314.778 218.177 321.026C224.425 327.274 234.556 327.274 240.804 321.026C247.052 314.778 247.052 304.647 240.804 298.399Z" fill="#292F33"/>
<path d="M414.1 312.865C416.936 312.141 442.648 330.371 425.957 335.749C409.265 341.127 411.279 313.574 414.1 312.865Z" fill="#DD2E44"/>
<path d="M397.182 317.142C400.523 317.089 424.177 338.238 401.089 342.228C378.024 346.21 392.4 317.217 397.182 317.142Z" fill="#DD2E44"/>
<path d="M372.82 314.864C377.413 315.973 395.221 344.823 368.86 340.048C344.966 335.704 366.748 313.408 372.82 314.864Z" fill="#DD2E44"/>
<path d="M345.079 305.722C354.937 311.07 360.737 341.021 335.575 328.516C310.406 316.003 335.221 300.375 345.079 305.722ZM279.821 178.586C280.53 175.75 262.308 150.046 256.937 166.73C251.56 183.421 279.112 181.407 279.821 178.586Z" fill="#DD2E44"/>
<path d="M275.537 195.497C275.59 192.155 254.441 168.502 250.451 191.59C246.476 214.662 275.469 200.286 275.537 195.497Z" fill="#DD2E44"/>
<path d="M277.815 219.859C276.706 215.266 247.856 197.458 252.638 223.826C256.983 247.721 279.278 225.938 277.815 219.859Z" fill="#DD2E44"/>
<path d="M286.956 247.6C281.609 237.742 251.658 231.942 264.163 257.104C276.684 282.28 292.312 257.466 286.956 247.6Z" fill="#DD2E44"/>
<path d="M240.057 218.456C243.18 215.333 239.597 251.937 289.83 302.17C340.071 352.41 376.659 348.813 373.536 351.935C370.414 355.058 324.48 359.447 278.516 313.484C232.553 267.52 236.935 221.579 240.057 218.456Z" fill="#A0041E"/>
<path d="M422.879 277.838C419.757 280.96 426.409 247.427 385.491 206.509C344.573 165.591 311.032 172.236 314.155 169.113C317.277 165.991 359.364 157.754 396.805 195.195C434.246 232.636 426.002 274.715 422.879 277.838Z" fill="#DD2E44"/>
</svg>
